<?xml version="1.0" standalone="no"?>
<!DOCTYPE svg PUBLIC "-//W3C//DTD SVG 20010904//EN"
 "http://www.w3.org/TR/2001/REC-SVG-20010904/DTD/svg10.dtd">
<svg version="1.0" xmlns="http://www.w3.org/2000/svg"
 width="814.000000pt" height="814.000000pt" viewBox="0 0 814.000000 814.000000"
 preserveAspectRatio="xMidYMid meet">
<metadata>
Created by potrace 1.14, written by Peter Selinger 2001-2017
</metadata>
<g transform="translate(0.000000,814.000000) scale(0.100000,-0.100000)"
fill="#000000" stroke="none">
<path d="M550 4925 l0 -345 285 0 c170 0 285 -4 285 -9 0 -5 -128 -228 -285
-496 l-285 -486 0 -344 0 -345 2175 0 2175 0 0 450 0 450 35 0 35 0 0 -450 0
-450 425 0 425 0 1 208 c1 114 4 196 6 182 8 -51 47 -147 80 -198 71 -106 194
-189 317 -211 39 -7 287 -11 713 -11 l653 0 0 285 0 285 -290 0 -290 0 0 900
0 900 -595 0 -595 0 -1 -207 c-1 -115 -4 -197 -6 -183 -2 14 -13 52 -25 85
-58 168 -207 295 -378 325 -44 7 -212 10 -515 8 -447 -3 -450 -3 -510 -27
-116 -46 -200 -116 -266 -219 l-29 -46 0 147 0 147 -1770 0 -1770 0 0 -345z
m4505 -430 c63 -121 115 -223 115 -227 0 -4 -106 -8 -235 -8 -129 0 -235 3
-235 7 0 10 233 453 237 450 1 -2 54 -102 118 -222z m-2165 76 c0 -5 -127
-227 -283 -493 l-284 -483 -286 -3 c-178 -1 -287 1 -287 7 0 8 499 867 556
959 14 22 15 22 299 22 170 0 285 -4 285 -9z m1200 -491 l0 -490 -286 0 c-237
0 -285 2 -282 14 3 15 559 966 565 966 2 0 3 -220 3 -490z"/>
</g>
</svg>
