<svg width="280" height="54" viewBox="0 0 280 54" fill="none" xmlns="http://www.w3.org/2000/svg">
<rect width="280" height="54" rx="5" fill="#F2F2F2"/>
<path d="M94.7398 18.472H104.036V20.152H94.7398V18.472ZM93.2198 24.776H106.612V26.488H93.2198V24.776ZM98.7718 25.976H100.916V32.44H98.7718V25.976ZM102.948 18.472H105.044V19.784C105.044 21.384 105.044 23.176 104.468 25.8L102.372 25.56C102.948 23.08 102.948 21.32 102.948 19.784V18.472ZM109.331 18.2H118.723V19.88H109.331V18.2ZM107.699 22.824H121.107V24.504H107.699V22.824ZM117.443 18.2H119.539V19.208C119.539 20.264 119.539 21.608 119.155 23.32L117.059 23.128C117.443 21.448 117.443 20.248 117.443 19.208V18.2ZM109.187 25.512H119.491V29.688H111.331V31.192H109.203V28.12H117.379V27.16H109.187V25.512ZM109.203 30.68H119.875V32.328H109.203V30.68ZM122.177 29.064H135.585V30.792H122.177V29.064ZM127.793 26.264H129.921V29.768H127.793V26.264ZM123.681 18.568H134.081V23.496H125.825V25.992H123.713V21.832H131.969V20.248H123.681V18.568ZM123.713 25.144H134.417V26.856H123.713V25.144ZM144.416 29.064H157.824V30.792H144.416V29.064ZM150.032 26.264H152.16V29.768H150.032V26.264ZM145.92 18.568H156.32V23.496H148.064V25.992H145.952V21.832H154.208V20.248H145.92V18.568ZM145.952 25.144H156.656V26.856H145.952V25.144ZM160.255 18.968H169.647V20.648H160.255V18.968ZM158.895 28.76H172.287V30.488H158.895V28.76ZM168.527 18.968H170.639V20.728C170.639 22.808 170.639 24.824 170.111 27.864L167.983 27.688C168.527 24.84 168.527 22.728 168.527 20.728V18.968ZM183.533 17.624H185.677V28.264H183.533V17.624ZM175.805 30.472H186.045V32.168H175.805V30.472ZM175.805 27.192H177.933V31.16H175.805V27.192ZM177.613 18.552C179.885 18.552 181.629 20.12 181.629 22.312C181.629 24.488 179.885 26.072 177.613 26.072C175.341 26.072 173.581 24.488 173.581 22.312C173.581 20.12 175.341 18.552 177.613 18.552ZM177.613 20.392C176.509 20.392 175.661 21.096 175.661 22.312C175.661 23.512 176.509 24.216 177.613 24.216C178.701 24.216 179.549 23.512 179.549 22.312C179.549 21.096 178.701 20.392 177.613 20.392Z" fill="#1B1B1B"/>
<path d="M48.6 0H5.4C2.41766 0 0 2.41766 0 5.4V48.6C0 51.5823 2.41766 54 5.4 54H48.6C51.5823 54 54 51.5823 54 48.6V5.4C54 2.41766 51.5823 0 48.6 0Z" fill="#F2F2F2"/>
<mask id="mask0_476_1849" style="mask-type:luminance" maskUnits="userSpaceOnUse" x="13" y="13" width="28" height="28">
<path d="M40.5 13.5H13.5V40.5H40.5V13.5Z" fill="white"/>
</mask>
<g mask="url(#mask0_476_1849)">
<path d="M39.96 27.3068C39.96 26.3495 39.8741 25.4291 39.7146 24.5454H27V29.7675H34.2654C33.9525 31.455 33.0014 32.8848 31.5716 33.842V37.2293H35.9346C38.4873 34.8791 39.96 31.4181 39.96 27.3068Z" fill="#4285F4"/>
<path d="M26.9997 40.5C30.6447 40.5 33.7005 39.2911 35.9341 37.2294L31.5712 33.8421C30.3624 34.6521 28.816 35.1306 26.9997 35.1306C23.4835 35.1306 20.5074 32.7559 19.4458 29.565H14.9355V33.0627C17.157 37.4748 21.7224 40.5 26.9997 40.5Z" fill="#34A853"/>
<path d="M19.4461 29.565C19.1761 28.755 19.0227 27.8898 19.0227 27C19.0227 26.1102 19.1761 25.245 19.4461 24.435V20.9373H14.9359C14.0216 22.7598 13.5 24.8216 13.5 27C13.5 29.1783 14.0216 31.2402 14.9359 33.0627L19.4461 29.565Z" fill="#FBBC04"/>
<path d="M26.9997 18.8694C28.9816 18.8694 30.7612 19.5504 32.1603 20.8881L36.0324 17.0161C33.6945 14.8377 30.6385 13.5 26.9997 13.5C21.7224 13.5 17.157 16.5252 14.9355 20.9373L19.4458 24.435C20.5074 21.2441 23.4835 18.8694 26.9997 18.8694Z" fill="#E94235"/>
</g>
</svg>
