<svg width="454" height="156" viewBox="0 0 454 156" fill="none" xmlns="http://www.w3.org/2000/svg">
<path d="M453.5 155C426.667 155.667 370.5 155 357.5 155C344.997 155 340.667 141.667 340 136V153L285.5 153.5V95.5H280.5V153.5H1V109L19.75 77L38.5 45H1V1H229V34.5C232 27.5 233.5 26 233.5 25C234.5 23.3333 237.9 18.7 243.5 13.5C250.5 7 256 5 260 3.5C263.2 2.3 269.667 1.33333 272.5 1C278.667 1 291.5 1 293.5 1C296 1 300 1.5 305.5 3.5C311 5.5 320 11 320.5 11.5C321 12 327.5 17.5 331 22C333.8 25.6 337.5 35.5 339 40L340 48V3H416V118.5H453.5M79 109H115L152 45H115L79 109ZM192 109H229V45L192 109ZM268.5 65H298L283.5 37L268.5 65Z" stroke="#246FFF"/>
<path d="M453.5 155.5V118" stroke="#246FFF"/>
<path d="M39 45H1V1.5H228.5V45H152.5H115.5L78.5 109H120.25L115.5 108.5L152 45.5H228.5L192 108.5L187.188 109H192.5H228.5L229.963 110.721L229 34L237 21L248 10L252.5 7L258 4.5L264.5 2.5L272 1L283.5 1.5L284.021 3.06429L284 1.5H295.5L305 3.5L320 11.5L329.5 20.5L335 30L338.5 39L340.151 43.624L340 3.5H416V119H453V154.5H355L348.5 151.5L343.5 146L340.58 136.267L340.5 153.5L286 153V95H281L280.5 65L299 65.5L298.5 65L284.5 38L284.469 35.7489L284 37L268.5 65H280L280.347 95.5V153.5H230.5L230.471 151.179L230 153.5H1V108.5L39 45Z" fill="#246FFF"/>
<path d="M1 45H39L1 108.5V153.5H230L237 119L228.5 109H192.5H78.5L115.5 45H152.5H228.5V1.5H1V45ZM152 45.5L115.5 108.5L153.5 112.5L192 108.5L228.5 45.5H152ZM230.5 153.5H280.347V95.5L280 65H268.5L284 37L290 21L283.5 1.5L272 1L264.5 2.5L258 4.5L252.5 7L248 10L237 21L229 34L230.5 153.5ZM280.5 65L281 95H286V153L340.5 153.5L341 46L338.5 39L335 30L329.5 20.5L320 11.5L305 3.5L295.5 1.5H284L284.5 38L298.5 65L299 65.5L280.5 65ZM340 3.5H416V119H453V154.5H355L348.5 151.5L343.5 146L340.5 136L340 3.5Z" stroke="#246FFF"/>
<rect x="276" y="65" width="9" height="31" fill="#246FFF"/>
<rect x="226" y="33" width="9" height="13" fill="#246FFF"/>
<rect x="226.038" y="39.7436" width="9" height="73.9509" transform="rotate(90.5761 226.038 39.7436)" fill="#246FFF"/>
</svg>
