<svg width="118" height="41" viewBox="0 0 118 41" fill="none" xmlns="http://www.w3.org/2000/svg">
<path d="M10.7522 12.292H1V1.12832H59.385V12.292H39.8805H30.385L20.8894 28.7168H31.604L30.385 28.5885L39.7522 12.4204H59.385L50.0177 28.5885L48.7826 28.7168H50.146H59.385L59.7604 29.1585L59.5133 9.46903L61.5664 6.13274L64.3894 3.30973L65.5443 2.53982L66.9558 1.89823L68.6239 1.38496L70.5487 1L73.5 1.12832L73.6338 1.52977L73.6283 1.12832H76.5797L79.0177 1.64159L82.8673 3.69469L85.3053 6.00443L86.7168 8.44248L87.615 10.7522L88.0389 11.9389L88 1.64159H107.504V31.2832H117V40.3938H91.8496L90.1814 39.6239L88.8982 38.2124L88.1489 35.7146L88.1283 40.1372H74.5064V32.9075V25.1239H72.8584L72.7301 17.4248L77.4779 17.5531L77.3496 17.4248L73.7566 10.4956L73.7487 9.91786L73.6283 10.2389L69.6504 17.4248H72.6018L72.419 25.1239V32.9075V40.1372H59.8982L59.8908 39.5416L59.7699 40.1372H1V28.5885L10.7522 12.292Z" fill="#246FFF"/>
<path d="M1 12.292H10.7522L1 28.5885V40.1372H59.7699L61.5664 31.2832L59.385 28.7168H50.146H20.8894L30.385 12.292H39.8805H59.385V1.12832H1V12.292ZM39.7522 12.4204L30.385 28.5885L40.1372 29.615L50.0177 28.5885L59.385 12.4204H39.7522ZM59.8982 40.1372H72.419V32.9075V25.1239L72.6018 17.4248H69.6504L73.6283 10.2389L75.1681 6.13274L73.5 1.12832L70.5487 1L68.6239 1.38496L66.9558 1.89823L65.5442 2.53982L64.3894 3.30973L61.5664 6.13274L59.5133 9.46903L59.8982 40.1372ZM72.7301 17.4248L72.8584 25.1239H74.5064V32.9075V40.1372H88.1283L88.2566 12.5487L87.615 10.7522L86.7168 8.44248L85.3053 6.00442L82.8673 3.69469L79.0177 1.64159L76.5796 1.12832H73.6283L73.7566 10.4956L77.3496 17.4248L77.4779 17.5531L72.7301 17.4248ZM88 1.64159H107.504V31.2832H117V40.3938H91.8496L90.1814 39.6239L88.8982 38.2124L88.1283 35.646L88 1.64159Z" stroke="#246FFF"/>
<rect x="69.2656" y="17.1681" width="8.72566" height="8.21239" fill="#246FFF"/>
<rect x="58.7432" y="9.72571" width="2.30973" height="3.33628" fill="#246FFF"/>
<rect x="59.0098" y="10.6864" width="2.30973" height="18.9785" transform="rotate(90.5761 59.0098 10.6864)" fill="#246FFF"/>
</svg>
